<svg width="0" height="0" class="hidden">
  <symbol fill="none" xmlns="http://www.w3.org/2000/svg" viewBox="0 0 77 21" id="logo">
    <path d="M0 3.04299C0 2.41879 0.21213 1.8949 0.636389 1.47134C1.08298 1.02548 1.61889 0.802548 2.24411 0.802548H21.7377C22.3629 0.802548 22.8989 1.01433 23.3454 1.4379C23.7697 1.88376 23.9818 2.41879 23.9818 3.04299C23.9818 3.6672 23.7585 4.20223 23.3119 4.64809C22.8877 5.07166 22.3629 5.28344 21.7377 5.28344H14.2685V18.8264C14.1345 20.164 13.3977 20.8885 12.0579 21C11.4327 21 10.8856 20.7994 10.4167 20.3981C9.9701 19.9745 9.7468 19.4506 9.7468 18.8264V5.28344H2.24411C1.61889 5.28344 1.09414 5.06051 0.669884 4.61465C0.223295 4.19108 0 3.6672 0 3.04299Z" fill="currentColor"></path>
    <path d="M33.8626 0.802548H47.9972C48.6224 0.824841 49.136 1.05892 49.5379 1.50478C49.9621 1.95064 50.1743 2.48567 50.1743 3.10987C50.0626 4.44745 49.3369 5.17197 47.9972 5.28344H35.0014C34.1529 5.32802 33.4495 5.65127 32.8913 6.25318C32.333 6.85509 31.9199 7.54618 31.652 8.32643C31.4064 9.08439 31.2836 9.86465 31.2836 10.6672C31.2836 11.4697 31.4064 12.2611 31.652 13.0414C31.9199 13.7994 32.333 14.4793 32.8913 15.0812C33.4495 15.6831 34.1529 16.0064 35.0014 16.051H45.1836C45.5856 16.0287 45.7977 15.8057 45.82 15.3822V13.4427C45.7977 12.9968 45.5856 12.7739 45.1836 12.7739H36.6091C35.9839 12.7739 35.448 12.5621 35.0014 12.1385C34.5772 11.6927 34.365 11.1576 34.365 10.5334C34.365 9.90924 34.5772 9.3742 35.0014 8.92834C35.448 8.50478 35.9839 8.29299 36.6091 8.29299H48.0641C48.6894 8.29299 49.2253 8.50478 49.6719 8.92834C50.0738 9.35191 50.2859 9.86465 50.3083 10.4666V10.5334V18.3583C50.2859 18.9602 50.0738 19.4618 49.6719 19.8631C49.2476 20.2866 48.734 20.5096 48.1311 20.5318H33.8626C32.2996 20.4427 31.0044 19.8519 29.9773 18.7596C28.9725 17.6449 28.2468 16.3853 27.8002 14.9809C27.3759 13.5764 27.1638 12.1385 27.1638 10.6672C27.1638 9.19586 27.3871 7.75796 27.8337 6.3535C28.2802 4.94904 29.006 3.70064 30.0108 2.60828C31.0156 1.49363 32.2996 0.89172 33.8626 0.802548Z" fill="currentColor"></path>
    <path d="M61.9977 15.3487C61.9977 14.7245 62.2099 14.2006 62.6341 13.7771C63.0807 13.3312 63.6166 13.1083 64.2418 13.1083H69.3664L68.4956 10.6338C68.1383 9.71974 67.781 8.86146 67.4238 8.05892C67.0888 7.23408 66.6981 6.48726 66.2515 5.81847C65.8495 5.14968 65.3918 4.79299 64.8782 4.74841C64.3423 4.79299 63.8622 5.14968 63.438 5.81847C63.0137 6.48726 62.6229 7.23408 62.2657 8.05892C61.9307 8.86146 61.5846 9.71974 61.2274 10.6338L58.0454 19.328C57.8221 19.7962 57.5318 20.1863 57.1746 20.4984C56.8396 20.7882 56.326 20.9331 55.6338 20.9331C54.9863 20.9331 54.4504 20.7102 54.0261 20.2643C53.6242 19.8185 53.4455 19.2834 53.4902 18.6592C53.5125 18.3694 53.5795 18.1019 53.6912 17.8567L57.3755 8.35987C58.4027 5.86306 59.4298 3.84554 60.457 2.30732C61.4618 0.791401 62.9356 0.022293 64.8782 0C66.7986 0.022293 68.2611 0.791401 69.266 2.30732C70.2931 3.80096 71.3203 5.81847 72.3474 8.35987L76.0318 17.8567C76.1434 18.1019 76.2104 18.3694 76.2327 18.6592C76.2774 19.2834 76.0876 19.8185 75.6633 20.2643C75.2614 20.7102 74.7367 20.9331 74.0891 20.9331C73.3522 20.9331 72.8052 20.7882 72.4479 20.4984C72.113 20.1863 71.8338 19.7962 71.6105 19.328L70.9742 17.5892H64.2418C63.6166 17.5892 63.0919 17.3662 62.6676 16.9204C62.221 16.4968 61.9977 15.9729 61.9977 15.3487Z" fill="currentColor"></path>
  </symbol>
</svg>
